<?xml version="1.0" standalone="no"?>
<!DOCTYPE svg PUBLIC "-//W3C//DTD SVG 20010904//EN"
 "http://www.w3.org/TR/2001/REC-SVG-20010904/DTD/svg10.dtd">
<svg version="1.0" xmlns="http://www.w3.org/2000/svg"
 width="512.000000pt" height="512.000000pt" viewBox="0 0 512.000000 512.000000"
 preserveAspectRatio="xMidYMid meet">
<metadata>
Created by potrace 1.14, written by Peter Selinger 2001-2017
</metadata>
<g transform="translate(0.000000,512.000000) scale(0.100000,-0.100000)"
fill="#000000" stroke="none">
<path d="M3266 4085 c-77 -27 -126 -98 -126 -182 0 -40 8 -63 46 -128 169
-291 227 -423 287 -645 157 -587 68 -1197 -252 -1724 -39 -66 -75 -136 -80
-155 -17 -85 25 -173 101 -212 56 -28 141 -23 192 12 83 57 280 426 365 684
95 288 132 521 133 815 0 204 -11 322 -48 513 -57 296 -165 572 -331 849 -71
118 -113 161 -170 177 -49 14 -69 13 -117 -4z"/>
<path d="M1955 3848 c-11 -6 -226 -167 -479 -356 -357 -269 -461 -352 -472
-378 -37 -90 -34 -1000 4 -1071 22 -42 918 -718 973 -734 47 -15 88 0 124 43
l25 30 0 1194 c0 1312 4 1236 -60 1269 -34 18 -87 19 -115 3z"/>
<path d="M2565 3675 c-50 -18 -100 -71 -116 -123 -19 -64 -4 -121 52 -207 105
-161 179 -341 216 -522 25 -124 25 -414 -1 -533 -40 -187 -114 -364 -218 -522
-73 -112 -78 -203 -16 -274 70 -79 176 -92 262 -31 39 28 137 180 201 312 278
575 233 1251 -118 1773 -52 77 -70 97 -111 117 -56 28 -93 31 -151 10z"/>
<path d="M419 3091 c-21 -17 -23 -29 -32 -167 -11 -194 -2 -779 13 -819 6 -16
17 -33 23 -37 7 -4 78 -8 158 -8 130 0 148 2 163 19 15 17 16 39 7 259 -6 153
-6 327 -1 479 6 131 8 245 5 254 -10 30 -53 39 -184 39 -111 0 -132 -3 -152
-19z"/>
</g>
</svg>
