<?xml version="1.0" standalone="no"?>
<!DOCTYPE svg PUBLIC "-//W3C//DTD SVG 20010904//EN"
 "http://www.w3.org/TR/2001/REC-SVG-20010904/DTD/svg10.dtd">
<svg version="1.0" xmlns="http://www.w3.org/2000/svg"
 width="256.000000pt" height="256.000000pt" viewBox="0 0 256.000000 256.000000"
 preserveAspectRatio="xMidYMid meet">
<metadata>
Created by potrace 1.14, written by Peter Selinger 2001-2017
</metadata>
<g transform="translate(0.000000,256.000000) scale(0.100000,-0.100000)"
fill="#000000" stroke="none">
<path d="M1165 2460 c-466 -47 -863 -366 -1005 -807 -135 -421 -36 -865 264
-1181 172 -180 411 -309 656 -353 96 -17 304 -17 400 0 245 44 484 173 656
353 431 453 432 1164 2 1623 -242 259 -620 400 -973 365z m212 -191 c573 -64
959 -564 868 -1124 -34 -211 -130 -400 -278 -548 -148 -147 -375 -258 -560
-273 -34 -3 -75 -7 -90 -9 -44 -7 -215 13 -296 36 -261 71 -490 258 -611 499
-175 352 -137 758 100 1053 126 157 306 277 495 332 76 21 122 29 263 44 7 0
56 -4 109 -10z"/>
<path d="M883 1285 c-1 -129 0 -235 3 -235 2 0 79 52 170 116 136 96 163 119
152 129 -14 14 -315 225 -320 225 -2 0 -4 -106 -5 -235z"/>
<path d="M1350 1290 l0 -230 60 0 60 0 0 230 0 230 -60 0 -60 0 0 -230z"/>
<path d="M1560 1513 c0 -4 -2 -108 -4 -230 l-5 -223 64 0 65 0 -6 228 -5 227
-55 3 c-30 2 -54 -1 -54 -5z"/>
</g>
</svg>
